<?xml version="1.0" standalone="no"?>
<!DOCTYPE svg PUBLIC "-//W3C//DTD SVG 20010904//EN"
 "http://www.w3.org/TR/2001/REC-SVG-20010904/DTD/svg10.dtd">
<svg version="1.0" xmlns="http://www.w3.org/2000/svg"
 width="6000.000000pt" height="3375.000000pt" viewBox="0 0 6000.000000 3375.000000"
 preserveAspectRatio="xMidYMid meet">

<g transform="translate(0.000000,3375.000000) scale(0.100000,-0.100000)"
fill="#000000" stroke="none">
<path d="M49090 25665 c0 -19 4 -35 10 -35 5 0 9 16 8 35 -1 19 -5 35 -10 35
-4 0 -8 -16 -8 -35z"/>
<path d="M15575 25591 c-23 -39 -10 -141 18 -141 35 0 51 112 20 136 -22 16
-30 17 -38 5z"/>
<path d="M37117 25586 c-3 -8 -2 -18 3 -21 13 -8 24 15 12 27 -6 6 -11 4 -15
-6z"/>
<path d="M23905 25515 c-4 -34 -15 -66 -29 -83 -12 -15 -27 -39 -34 -54 -10
-24 -27 -33 -54 -29 -3 0 -12 -22 -19 -50 -8 -32 -22 -57 -35 -66 -16 -10 -24
-29 -29 -64 -6 -44 -10 -51 -35 -56 -30 -6 -40 -25 -40 -81 0 -43 -16 -72 -39
-72 -15 0 -20 -10 -25 -47 -10 -71 -16 -83 -40 -92 -17 -7 -24 -23 -34 -70 -8
-38 -20 -65 -32 -74 -11 -8 -27 -34 -35 -58 -9 -24 -27 -54 -40 -67 -14 -13
-25 -34 -25 -48 0 -32 -25 -81 -49 -93 -12 -7 -23 -32 -31 -72 -7 -34 -23 -73
-35 -88 -12 -14 -27 -41 -33 -59 -6 -19 -22 -46 -35 -62 -14 -16 -28 -46 -32
-67 -3 -21 -17 -49 -30 -63 -13 -14 -28 -45 -35 -70 -6 -25 -23 -62 -37 -84
-13 -21 -31 -60 -39 -88 -8 -27 -24 -58 -35 -69 -11 -11 -27 -44 -36 -72 -8
-29 -23 -61 -34 -73 -10 -11 -25 -42 -33 -68 -8 -27 -23 -58 -34 -70 -11 -11
-27 -46 -37 -76 -9 -30 -25 -62 -34 -70 -10 -9 -26 -39 -35 -67 -10 -29 -25
-62 -36 -75 -10 -13 -25 -48 -34 -78 -9 -29 -24 -63 -35 -74 -10 -12 -24 -39
-31 -61 -7 -22 -28 -68 -47 -103 -18 -35 -33 -69 -33 -75 0 -7 -11 -25 -25
-41 -14 -17 -32 -53 -41 -82 -8 -29 -24 -64 -35 -78 -11 -14 -26 -47 -34 -74
-8 -27 -23 -57 -34 -66 -11 -10 -25 -40 -31 -67 -7 -27 -20 -59 -31 -72 -10
-13 -28 -48 -39 -78 -12 -30 -28 -61 -35 -69 -7 -8 -23 -40 -35 -70 -12 -30
-30 -68 -40 -85 -9 -16 -23 -48 -30 -70 -7 -22 -21 -49 -31 -61 -11 -11 -26
-45 -35 -75 -9 -30 -25 -66 -35 -80 -10 -14 -27 -51 -39 -81 -11 -31 -27 -61
-35 -68 -8 -6 -21 -33 -30 -60 -9 -27 -24 -59 -34 -72 -10 -13 -26 -46 -35
-74 -9 -28 -28 -66 -41 -84 -14 -19 -25 -39 -25 -46 0 -7 -14 -38 -31 -70 -17
-33 -37 -80 -45 -105 -8 -26 -21 -52 -29 -59 -8 -6 -24 -37 -35 -68 -12 -32
-28 -64 -35 -72 -8 -9 -22 -36 -30 -60 -9 -25 -25 -60 -36 -80 -12 -19 -30
-57 -41 -85 -23 -60 -74 -170 -95 -205 -8 -14 -25 -47 -37 -75 -13 -27 -33
-59 -45 -69 -12 -11 -26 -38 -32 -60 -6 -23 -21 -57 -35 -76 -13 -20 -31 -59
-39 -87 -8 -27 -23 -61 -34 -74 -10 -13 -22 -35 -26 -49 -4 -14 -22 -52 -40
-85 -18 -33 -38 -78 -45 -100 -7 -22 -20 -49 -30 -60 -10 -11 -23 -38 -30 -60
-7 -22 -21 -52 -32 -67 -10 -15 -28 -53 -38 -84 -11 -32 -26 -65 -34 -73 -7
-9 -21 -39 -30 -66 -9 -28 -27 -66 -40 -86 -13 -19 -29 -54 -35 -76 -6 -22
-20 -52 -31 -66 -12 -15 -27 -48 -35 -75 -8 -27 -23 -60 -33 -73 -11 -13 -27
-46 -37 -72 -10 -27 -26 -58 -35 -70 -9 -12 -25 -45 -34 -73 -9 -28 -28 -66
-41 -84 -14 -19 -25 -41 -25 -50 0 -9 -18 -52 -40 -95 -22 -43 -40 -84 -40
-90 0 -7 -9 -24 -20 -38 -12 -14 -30 -52 -40 -83 -11 -32 -27 -65 -34 -73 -8
-9 -24 -43 -37 -76 -12 -33 -27 -67 -34 -75 -7 -8 -20 -37 -30 -65 -9 -27 -27
-66 -40 -85 -12 -19 -28 -53 -35 -75 -7 -22 -21 -50 -31 -63 -10 -13 -25 -46
-35 -74 -9 -28 -27 -67 -40 -86 -13 -19 -28 -51 -34 -71 -5 -20 -21 -52 -35
-71 -14 -19 -25 -41 -25 -49 0 -8 -13 -37 -29 -65 -15 -28 -36 -75 -45 -104
-15 -43 -24 -56 -56 -72 -22 -11 -41 -20 -44 -20 -2 0 -13 27 -25 60 -11 34
-31 74 -44 90 -13 15 -27 46 -30 67 -4 22 -16 48 -26 58 -11 9 -28 43 -37 74
-8 31 -22 63 -30 72 -8 9 -25 44 -39 79 -14 35 -31 70 -39 79 -7 9 -19 34 -26
56 -12 39 -28 73 -104 221 -20 40 -36 78 -36 86 0 8 -14 35 -30 60 -17 25 -37
67 -44 93 -8 26 -22 55 -30 64 -9 10 -24 42 -35 72 -10 30 -30 72 -45 93 -14
21 -26 45 -26 53 0 8 -13 40 -29 71 -59 112 -111 227 -111 243 0 8 -11 30 -25
49 -13 18 -32 56 -41 84 -9 28 -25 62 -35 75 -11 13 -24 42 -30 65 -6 22 -24
61 -40 85 -16 25 -29 51 -29 59 0 8 -16 43 -35 78 -19 34 -35 69 -35 77 0 8
-13 34 -30 58 -16 24 -36 67 -45 95 -8 28 -21 57 -29 63 -8 7 -24 41 -36 76
-12 35 -28 69 -36 75 -7 7 -20 33 -28 59 -7 26 -25 69 -39 96 -24 47 -69 141
-117 245 -11 25 -38 74 -60 110 -22 36 -49 85 -60 110 -11 25 -33 70 -49 100
-16 30 -32 69 -35 86 -4 17 -18 46 -31 64 -14 18 -32 55 -40 81 -9 26 -22 53
-30 59 -8 6 -23 40 -35 75 -12 35 -27 69 -35 75 -8 6 -19 28 -25 48 -7 20 -25
64 -40 97 -16 33 -38 80 -50 105 -11 25 -27 56 -34 70 -26 45 -96 195 -96 204
0 5 -13 30 -29 55 -16 25 -34 63 -41 85 -7 21 -23 55 -36 74 -14 20 -31 59
-40 89 -8 29 -19 53 -24 53 -5 0 -18 25 -30 56 -11 31 -29 68 -40 81 -10 13
-26 50 -35 81 -9 31 -25 66 -35 77 -9 11 -23 38 -30 60 -7 22 -23 56 -37 77
-13 20 -31 58 -39 84 -8 26 -23 57 -33 68 -10 12 -24 39 -31 61 -13 41 -46
111 -106 226 -18 37 -34 73 -34 80 0 7 -13 33 -30 59 -16 25 -36 65 -44 88 -8
23 -23 51 -34 62 -10 11 -24 42 -31 69 -7 27 -23 63 -36 81 -13 18 -29 55 -37
82 -7 28 -18 52 -24 55 -7 2 -22 30 -35 61 -12 31 -30 68 -40 82 -9 14 -24 51
-33 81 -9 31 -26 65 -37 75 -11 10 -25 38 -31 62 -6 24 -21 56 -33 70 -12 15
-30 49 -39 76 -9 27 -25 60 -36 73 -10 13 -26 48 -36 76 -9 29 -27 64 -39 79
-12 14 -25 44 -29 67 -3 22 -14 46 -24 53 -25 18 -38 45 -47 96 -4 26 -17 52
-31 66 -15 13 -31 46 -40 80 -10 36 -25 66 -40 80 -17 14 -29 38 -34 68 -5 27
-19 56 -34 71 -14 14 -28 41 -31 61 -4 20 -18 45 -31 55 -17 13 -26 36 -35 86
-10 54 -17 69 -35 76 -18 6 -26 21 -35 68 -10 49 -17 61 -35 65 -23 6 -44 54
-44 103 0 13 -8 24 -20 28 -35 11 -50 35 -50 81 0 25 -5 44 -11 44 -6 0 -9 -6
-6 -12 6 -16 -57 -18 -72 -3 -5 6 -12 27 -15 49 -7 43 -14 58 -24 52 -10 -6
-37 15 -49 39 -6 11 -14 39 -18 62 -6 40 -7 41 -26 25 -10 -9 -19 -24 -19 -33
0 -9 -9 -24 -20 -34 -15 -13 -17 -22 -9 -36 6 -13 6 -19 0 -19 -6 0 -8 -8 -5
-17 4 -13 1 -12 -13 5 -15 18 -21 20 -31 10 -9 -9 -12 -9 -12 0 0 7 -3 11 -7
10 -21 -4 -43 17 -49 47 -5 28 -10 33 -32 30 -27 -3 -62 -37 -62 -61 0 -12
-405 -14 -2718 -14 l-2719 0 -23 25 -24 26 -12 -22 c-11 -21 -11 -21 -18 7
l-8 29 -19 -25 -19 -25 0 33 c0 18 -4 31 -9 28 -5 -4 -12 0 -14 6 -3 7 -6 0
-6 -16 -1 -28 -2 -29 -16 -10 -13 17 -15 14 -16 -41 l-2 -60 -6 52 c-4 28 -9
54 -12 58 -14 13 -37 -1344 -49 -2890 -14 -1779 -20 -2243 -31 -2271 -14 -38
-12 -10482 2 -10523 23 -65 -106 -61 1797 -61 l1729 0 19 21 c19 21 19 123 19
5303 0 2904 -4 5701 -9 6213 -8 877 -8 935 9 979 l17 45 16 -23 c8 -13 29 -39
47 -58 18 -19 40 -60 49 -90 10 -30 26 -64 36 -75 10 -11 24 -40 31 -65 7 -25
21 -54 31 -65 10 -12 27 -47 38 -80 11 -32 27 -66 35 -75 8 -9 22 -39 31 -66
9 -27 25 -58 35 -69 10 -11 25 -41 34 -65 9 -25 27 -61 40 -80 13 -19 27 -48
31 -65 4 -16 17 -42 30 -57 12 -15 30 -51 40 -80 9 -29 25 -64 34 -78 10 -14
21 -36 25 -50 4 -14 22 -53 41 -87 19 -34 34 -67 34 -75 0 -7 14 -33 30 -57
17 -24 35 -61 40 -81 6 -21 19 -49 30 -63 12 -15 28 -49 36 -76 8 -28 25 -63
38 -78 13 -15 31 -51 40 -80 9 -28 23 -57 31 -63 8 -6 19 -28 26 -48 6 -20 22
-55 34 -77 13 -22 26 -57 30 -78 4 -21 18 -54 32 -74 13 -20 33 -60 44 -89 11
-28 26 -57 34 -64 8 -6 21 -35 31 -63 9 -29 23 -59 31 -68 8 -9 23 -41 34 -70
11 -29 29 -63 39 -76 10 -13 24 -41 31 -61 6 -20 20 -49 30 -63 10 -14 27 -48
38 -76 11 -27 31 -67 45 -88 14 -21 26 -46 26 -55 0 -9 12 -35 26 -56 15 -21
34 -59 42 -84 8 -25 23 -54 33 -65 10 -12 28 -47 39 -80 11 -32 27 -66 35 -75
8 -9 21 -36 30 -60 9 -24 22 -52 31 -61 8 -9 24 -41 35 -70 11 -29 29 -63 40
-77 10 -14 24 -43 30 -66 6 -22 22 -56 35 -73 14 -18 31 -54 39 -79 7 -25 20
-53 29 -62 8 -10 24 -42 36 -72 12 -30 28 -62 36 -71 8 -9 22 -38 31 -64 9
-27 26 -64 39 -82 13 -19 28 -51 35 -71 6 -20 20 -49 31 -64 10 -15 25 -46 33
-69 9 -24 22 -51 31 -60 8 -9 24 -41 35 -70 12 -30 27 -61 35 -70 8 -9 25 -44
39 -79 14 -35 31 -70 38 -79 8 -9 22 -36 31 -61 10 -25 24 -52 32 -61 8 -8 23
-41 34 -73 10 -31 28 -68 39 -82 11 -14 25 -42 32 -62 6 -20 18 -44 25 -53 8
-9 25 -44 39 -79 14 -35 31 -70 39 -79 8 -9 23 -40 35 -70 11 -29 26 -61 34
-70 8 -9 22 -39 31 -68 10 -28 23 -57 31 -63 8 -6 22 -33 31 -58 10 -26 28
-63 41 -82 12 -19 29 -55 38 -80 8 -24 22 -52 31 -61 8 -9 24 -39 34 -67 11
-27 31 -67 45 -87 14 -21 25 -43 25 -49 0 -10 62 -145 95 -206 65 -122 114
-223 120 -248 3 -16 15 -38 25 -47 11 -10 26 -39 35 -66 9 -26 25 -59 35 -72
11 -13 29 -49 40 -80 11 -30 27 -61 35 -67 8 -7 15 -18 15 -25 0 -7 20 -52 45
-101 25 -48 45 -93 45 -100 0 -6 10 -23 21 -38 12 -15 30 -49 40 -75 10 -27
30 -66 44 -86 14 -21 25 -45 25 -54 0 -9 16 -41 35 -71 19 -30 35 -62 35 -71
0 -9 12 -34 26 -55 15 -21 34 -59 42 -84 8 -25 25 -57 37 -72 12 -14 27 -46
33 -71 7 -24 18 -50 26 -56 8 -7 27 -44 41 -82 15 -38 31 -69 35 -69 5 0 18
-25 30 -57 11 -31 30 -69 41 -85 12 -16 25 -45 31 -66 5 -20 20 -50 32 -67 13
-16 30 -52 39 -79 9 -27 23 -56 31 -65 8 -9 24 -41 36 -71 12 -30 28 -62 36
-70 7 -9 21 -36 29 -60 9 -25 27 -61 40 -81 13 -20 28 -54 34 -76 6 -23 18
-46 25 -53 8 -6 27 -42 41 -80 14 -38 32 -74 40 -80 8 -6 21 -33 30 -60 9 -27
24 -59 34 -72 9 -13 23 -39 31 -58 7 -19 25 -57 40 -85 15 -27 31 -61 35 -75
4 -14 17 -38 30 -55 12 -16 26 -41 30 -55 4 -14 23 -54 41 -89 19 -35 34 -70
34 -77 0 -7 10 -25 23 -41 13 -15 29 -44 36 -63 18 -48 102 -222 116 -240 7
-8 19 -35 27 -60 8 -25 27 -62 41 -83 14 -21 31 -55 38 -75 6 -20 20 -49 30
-63 10 -14 27 -51 39 -81 11 -31 27 -61 35 -68 8 -6 21 -33 30 -60 9 -27 22
-54 30 -60 8 -6 21 -33 30 -60 9 -27 25 -60 35 -73 11 -13 29 -49 40 -80 11
-30 29 -66 39 -79 10 -13 24 -41 31 -63 7 -22 21 -52 31 -66 10 -14 26 -48 37
-76 11 -29 29 -64 41 -79 11 -15 21 -32 21 -39 0 -7 9 -24 21 -39 l20 -26
1043 0 1042 0 42 43 c27 28 47 60 57 94 8 28 22 56 29 63 8 6 22 33 31 60 9
27 25 60 35 73 10 13 27 44 36 68 10 24 28 60 40 79 12 19 28 53 34 75 7 22
23 53 36 68 13 16 24 34 24 40 0 16 108 235 120 242 5 3 14 25 20 48 7 23 23
59 37 80 13 22 31 57 39 79 7 21 23 51 34 65 11 14 25 44 31 66 6 22 21 54 33
71 13 17 31 51 40 76 10 25 24 52 31 60 7 8 22 39 34 69 11 29 27 61 35 70 8
9 24 41 36 73 11 31 27 61 35 68 8 6 21 35 31 63 9 29 23 59 31 68 8 9 23 41
34 70 11 29 29 63 40 77 10 14 26 47 34 75 8 28 23 60 33 71 11 12 27 41 36
65 9 24 26 55 36 68 10 14 26 48 34 77 9 30 22 59 31 66 8 6 24 37 35 68 12
32 28 64 36 73 8 9 24 41 35 70 11 29 29 63 39 76 10 13 24 41 31 61 6 20 18
44 25 53 8 9 25 44 39 79 14 35 31 70 39 79 8 9 24 41 36 73 11 31 27 61 35
68 8 6 21 35 29 65 9 29 22 58 30 64 8 7 23 34 32 59 10 26 28 59 40 74 12 15
30 52 38 82 9 29 22 59 31 66 8 6 23 36 34 64 11 29 31 70 45 91 14 21 26 46
26 55 0 9 12 35 27 56 14 21 34 60 44 85 10 26 30 64 44 84 14 21 25 46 25 55
0 9 12 35 26 56 15 21 34 59 42 84 8 25 23 57 34 72 10 15 24 42 30 60 6 18
22 49 34 68 13 19 30 55 39 80 8 24 22 52 31 61 8 9 24 39 34 67 11 27 31 67
45 87 14 21 25 45 25 54 0 10 13 37 29 62 15 25 34 63 41 85 7 21 23 53 35 69
13 17 28 46 34 66 6 20 22 51 36 69 13 18 32 55 40 81 9 26 22 53 30 59 8 6
21 35 29 64 9 29 25 65 36 79 11 14 26 41 32 59 6 18 22 49 34 68 13 19 30 54
38 78 9 24 25 56 36 72 11 16 27 48 35 71 9 24 22 51 31 60 8 9 24 41 35 70
12 30 27 61 35 69 7 9 21 36 29 60 9 25 26 61 39 80 13 19 28 51 35 71 6 20
23 51 36 69 14 19 25 39 25 46 0 7 14 38 31 70 17 33 40 82 51 109 11 28 25
57 32 65 7 8 20 36 30 62 9 25 23 52 31 58 8 6 26 43 40 81 15 38 31 69 35 69
5 0 18 26 30 58 12 31 28 64 36 73 7 8 23 42 34 74 11 33 29 68 39 80 10 11
24 36 30 55 6 19 22 51 35 70 13 19 27 46 31 60 4 14 20 48 36 76 16 28 36 71
44 95 9 24 22 50 29 59 8 8 24 40 36 70 12 30 28 62 35 70 7 8 23 40 35 72 11
31 27 61 35 68 8 6 21 35 31 63 9 29 25 61 35 72 10 11 25 40 33 63 9 24 24
55 34 70 11 15 27 50 36 79 9 28 23 57 31 63 8 7 23 36 34 64 11 29 31 70 45
90 13 20 28 51 31 69 4 18 17 43 30 57 12 14 30 47 39 74 9 27 22 56 29 65 8
9 24 42 36 73 13 32 29 62 37 69 8 6 21 35 30 64 8 30 21 59 29 65 8 7 24 37
35 68 12 32 30 66 40 77 10 11 21 42 25 68 4 27 17 60 30 75 12 15 29 48 38
75 9 26 25 59 36 74 12 14 21 30 21 36 0 14 110 236 120 242 5 3 16 29 26 58
9 28 25 62 35 75 10 13 23 40 30 60 6 20 24 57 39 82 15 25 33 63 40 85 7 22
18 47 26 55 7 8 22 38 34 65 12 28 30 59 40 70 10 11 21 34 25 52 3 18 17 48
30 67 13 20 31 57 40 83 9 26 30 68 46 92 16 25 29 49 29 55 0 13 81 178 97
198 6 7 23 42 37 77 14 36 32 72 40 80 7 9 20 34 27 56 18 52 38 85 54 85 7 0
24 11 37 25 21 21 27 23 32 10 8 -21 9 -243 2 -595 -3 -162 -6 -522 -7 -800
-1 -278 -6 -515 -10 -527 -10 -27 -14 -10507 -4 -10546 16 -61 -99 -57 1798
-57 1481 0 1736 2 1753 14 19 14 19 79 18 5303 0 2908 -4 5610 -8 6003 -3 393
-11 1352 -17 2130 -5 778 -12 1598 -16 1823 l-6 407 -2754 0 -2754 0 -23 25
c-24 26 -76 35 -76 12 0 -7 -9 -18 -20 -25 -17 -10 -21 -10 -24 0 -3 7 -10 30
-16 51 l-12 39 -23 -22 c-12 -11 -26 -20 -31 -19 -5 1 -21 -3 -35 -9 -15 -6
-43 -14 -62 -17 -51 -10 -66 17 -68 123 -1 58 -5 82 -14 82 -8 0 -15 -21 -20
-55z m-8211 -258 c-1 -9 2 -14 7 -12 11 7 29 -28 29 -55 0 -12 5 -18 10 -15 6
3 10 2 10 -3 0 -6 -7 -12 -15 -16 -10 -4 -15 1 -16 17 -1 18 -2 19 -6 4 -5
-18 -5 -18 -19 0 -9 12 -13 13 -14 5 0 -11 -2 -11 -13 0 -17 17 -38 78 -31 89
10 16 59 3 58 -14z m8175 -33 c-16 -19 -29 -17 -29 4 0 26 11 34 27 21 10 -9
10 -15 2 -25z"/>
<path d="M49637 25521 c-3 -11 -1 -23 3 -26 14 -8 22 13 12 31 -8 14 -10 14
-15 -5z"/>
<path d="M15768 25513 c-27 -7 -22 -28 7 -31 19 -1 25 3 25 18 0 20 -2 21 -32
13z"/>
<path d="M24110 25506 c0 -8 12 -28 27 -43 l26 -28 -6 25 c-4 14 -7 33 -7 43
0 10 -8 17 -20 17 -11 0 -20 -7 -20 -14z"/>
<path d="M37008 25513 c-22 -3 -28 -10 -28 -29 0 -13 5 -24 11 -24 5 0 7 5 4
10 -3 6 3 10 14 10 28 0 72 21 65 31 -5 9 -17 9 -66 2z"/>
<path d="M49225 25510 c-3 -5 1 -10 10 -10 9 0 13 5 10 10 -3 6 -8 10 -10 10
-2 0 -7 -4 -10 -10z"/>
<path d="M49274 25454 c3 -9 6 -34 6 -56 0 -39 1 -40 30 -36 23 3 30 1 30 -12
0 -9 9 -16 21 -17 30 -3 31 -4 15 -57 -20 -66 -40 -94 -67 -92 -27 1 -37 27
-38 99 l-1 47 -39 0 c-65 0 -86 13 -100 62 -17 58 -28 70 -52 58 -21 -12 -42
-79 -33 -104 6 -15 -467 -16 -5750 -16 l-5755 0 -15 29 c-13 24 -21 29 -52 28
-28 -1 -41 -8 -57 -29 -11 -15 -27 -28 -34 -28 -7 0 -13 -8 -13 -18 0 -11 -8
-26 -18 -36 -18 -15 -20 -15 -35 2 -16 18 -16 20 1 35 10 10 26 17 35 17 10 0
17 8 17 18 0 19 -39 62 -57 62 -5 0 -18 9 -27 19 -17 18 -21 18 -59 5 -49 -17
-83 -47 -91 -79 -4 -15 -16 -24 -37 -29 -65 -13 -87 -7 -131 34 -24 22 -51 40
-62 40 -11 0 -16 5 -13 14 5 11 0 12 -24 3 -16 -6 -29 -15 -29 -18 0 -4 -13
-10 -30 -14 -18 -4 -35 -17 -43 -33 -7 -15 -20 -26 -29 -24 -9 1 -28 -12 -42
-30 -15 -18 -36 -44 -46 -56 -11 -13 -20 -27 -20 -32 0 -4 -16 -17 -35 -29
-19 -11 -35 -27 -35 -36 0 -40 -85 -126 -167 -169 -20 -10 -33 -24 -33 -35 0
-13 -9 -21 -29 -26 -33 -7 -47 -20 -53 -50 -2 -11 -14 -25 -28 -32 -13 -6 -28
-21 -32 -33 -4 -11 -19 -25 -33 -30 -15 -6 -30 -23 -36 -40 -7 -18 -20 -32
-35 -36 -13 -3 -26 -16 -30 -27 -4 -12 -21 -36 -38 -53 -17 -17 -47 -54 -66
-84 -19 -29 -53 -72 -75 -95 -22 -23 -51 -59 -65 -80 -14 -21 -39 -53 -56 -70
-18 -17 -38 -45 -47 -61 -8 -16 -27 -39 -42 -52 -14 -13 -31 -36 -37 -52 -5
-16 -18 -32 -29 -35 -11 -4 -26 -21 -33 -40 -8 -18 -22 -36 -33 -39 -10 -3
-26 -27 -37 -52 -10 -25 -25 -48 -33 -51 -8 -3 -25 -30 -38 -59 -13 -30 -29
-54 -35 -54 -5 0 -21 -25 -35 -55 -13 -30 -31 -58 -39 -61 -8 -3 -20 -21 -26
-40 -7 -19 -23 -47 -36 -63 -13 -16 -31 -45 -39 -65 -8 -19 -23 -40 -34 -45
-10 -6 -22 -26 -25 -45 -4 -18 -18 -46 -33 -62 -14 -15 -31 -42 -38 -59 -8
-17 -22 -38 -33 -48 -10 -10 -28 -37 -38 -60 -10 -23 -28 -54 -40 -69 -13 -15
-28 -53 -34 -84 -7 -31 -20 -64 -30 -74 -10 -10 -23 -35 -30 -56 -7 -22 -26
-60 -42 -86 -16 -26 -34 -62 -39 -81 -5 -19 -20 -50 -33 -69 -13 -20 -29 -52
-36 -72 -6 -19 -16 -38 -21 -42 -14 -9 -45 -75 -53 -114 -3 -19 -16 -44 -27
-56 -11 -12 -26 -50 -34 -86 -7 -35 -22 -79 -33 -98 -11 -19 -28 -64 -37 -100
-9 -36 -23 -75 -31 -87 -7 -12 -23 -57 -35 -100 -12 -43 -29 -91 -39 -108 -10
-16 -23 -57 -30 -89 -7 -33 -25 -85 -41 -115 -16 -31 -33 -87 -39 -126 -6 -38
-17 -79 -24 -90 -15 -24 -33 -95 -45 -186 -5 -36 -18 -86 -29 -110 -11 -24
-25 -80 -32 -124 -6 -44 -24 -123 -40 -175 -15 -52 -35 -144 -44 -205 -8 -60
-21 -135 -29 -165 -8 -30 -22 -109 -32 -175 -22 -152 -30 -203 -50 -290 -8
-38 -20 -162 -25 -275 -6 -113 -18 -304 -26 -425 -21 -298 -29 -751 -15 -895
6 -63 18 -250 26 -415 19 -401 23 -440 50 -585 14 -69 31 -204 40 -300 8 -97
23 -206 34 -245 11 -38 27 -114 36 -168 8 -54 23 -113 31 -130 9 -17 23 -75
30 -129 8 -53 23 -121 34 -150 11 -29 29 -106 40 -171 11 -65 26 -130 34 -146
8 -15 22 -58 31 -96 8 -38 25 -84 37 -103 11 -19 27 -64 35 -100 7 -36 22 -79
32 -96 11 -17 27 -62 35 -100 9 -38 25 -83 35 -100 10 -17 24 -56 30 -86 7
-30 21 -69 31 -88 11 -18 27 -60 35 -94 9 -33 29 -85 46 -116 16 -30 29 -60
29 -66 0 -7 13 -33 29 -59 17 -25 33 -62 37 -82 3 -20 18 -52 31 -72 14 -21
31 -56 38 -80 7 -23 22 -54 33 -68 12 -14 28 -50 38 -78 9 -29 23 -59 31 -68
8 -9 23 -39 33 -67 11 -27 31 -67 45 -87 14 -21 25 -43 25 -50 0 -7 16 -32 35
-55 19 -23 35 -46 35 -51 0 -5 16 -32 35 -60 19 -28 35 -57 35 -64 0 -8 11
-27 25 -43 14 -17 34 -51 45 -76 12 -25 25 -48 30 -51 6 -4 22 -30 36 -58 15
-29 34 -60 43 -71 9 -10 25 -35 36 -56 22 -41 74 -118 130 -190 19 -25 50 -67
69 -95 20 -27 56 -75 80 -105 25 -30 50 -65 55 -76 5 -12 20 -29 32 -37 12 -9
31 -31 43 -50 31 -51 76 -117 108 -157 53 -68 71 -89 223 -255 39 -43 77 -87
85 -99 8 -11 42 -48 75 -82 33 -33 107 -111 165 -173 150 -161 197 -208 279
-281 41 -36 88 -78 106 -95 18 -16 58 -50 89 -75 113 -90 123 -99 273 -237
111 -102 277 -235 347 -278 32 -20 47 -31 141 -105 27 -22 54 -40 60 -40 5 0
21 -11 35 -25 35 -35 226 -175 238 -175 6 0 23 -11 39 -24 15 -13 52 -36 81
-52 80 -43 154 -86 192 -111 19 -13 40 -23 47 -23 6 0 25 -11 41 -25 16 -13
49 -33 73 -43 25 -11 50 -26 57 -35 7 -8 37 -25 67 -37 30 -12 55 -26 55 -31
0 -5 28 -22 63 -37 34 -16 68 -36 76 -45 7 -9 19 -17 25 -17 7 0 48 -18 91
-40 43 -22 84 -40 90 -40 7 0 28 -11 47 -24 19 -13 59 -31 89 -41 30 -10 63
-25 74 -35 11 -10 31 -21 45 -25 24 -7 100 -41 245 -110 39 -19 86 -37 105
-41 19 -3 53 -17 75 -29 22 -13 65 -28 95 -34 30 -7 70 -21 88 -31 18 -11 63
-28 100 -37 37 -9 79 -24 93 -34 15 -11 58 -26 95 -35 38 -8 83 -24 99 -34 17
-10 75 -28 130 -39 55 -11 116 -26 135 -34 19 -8 73 -20 120 -26 47 -7 123
-23 170 -36 47 -14 128 -31 180 -40 52 -8 120 -24 151 -34 31 -11 95 -25 143
-31 109 -13 173 -26 210 -40 16 -6 113 -19 215 -30 102 -10 198 -23 213 -29
49 -18 231 -40 438 -51 113 -6 261 -15 330 -21 388 -31 709 -29 1120 5 96 9
315 20 485 26 281 10 366 18 515 49 25 5 133 17 241 25 107 9 219 23 249 31
30 8 118 21 195 30 87 9 167 24 211 39 39 13 110 29 159 35 49 7 114 23 144
35 31 13 100 29 156 35 55 7 118 21 140 31 22 10 79 26 126 34 48 8 109 26
135 39 27 13 72 27 99 31 28 4 72 18 98 32 27 14 74 30 105 35 31 6 76 22 100
35 23 14 71 30 105 35 34 5 82 20 107 33 25 13 72 29 105 36 33 6 81 22 107
36 26 13 65 27 88 30 23 4 56 17 74 29 18 12 56 30 84 39 28 10 62 26 76 37
14 11 51 29 83 40 32 10 69 28 83 38 14 10 43 24 65 31 22 7 52 21 67 32 15
10 47 25 72 32 25 8 57 23 71 34 15 12 50 28 79 36 29 9 64 24 77 34 13 10 44
26 68 36 24 9 56 26 70 37 56 43 98 70 146 93 28 13 57 31 64 40 7 8 36 27 64
41 69 34 141 77 164 96 10 9 34 24 53 34 19 9 46 27 60 40 14 12 42 28 62 34
20 7 42 19 49 27 7 9 34 27 61 40 26 13 48 28 48 33 0 5 14 14 32 22 28 11 68
41 153 114 47 39 117 96 175 140 118 90 136 105 170 134 19 17 73 63 120 102
141 117 204 176 487 456 l271 270 7 58 c9 66 -3 6074 -12 6088 -23 37 -13 37
-1798 37 -1802 0 -1775 1 -1800 -39 -4 -7 -9 -1113 -11 -2458 l-4 -2447 -25
-32 c-13 -17 -46 -42 -72 -55 -27 -12 -55 -28 -65 -36 -9 -8 -63 -38 -121 -67
-58 -29 -117 -63 -132 -74 -14 -11 -50 -28 -78 -38 -29 -9 -59 -23 -68 -30 -9
-8 -40 -21 -70 -30 -30 -9 -68 -25 -86 -35 -17 -11 -55 -27 -84 -35 -29 -9
-78 -29 -107 -45 -30 -16 -65 -29 -77 -29 -12 0 -44 -11 -70 -25 -26 -14 -74
-32 -106 -39 -32 -8 -74 -24 -92 -35 -19 -11 -70 -28 -113 -37 -43 -8 -106
-26 -139 -39 -33 -12 -84 -26 -114 -29 -29 -4 -83 -18 -120 -32 -41 -16 -113
-31 -191 -40 -69 -8 -152 -23 -185 -34 -34 -11 -125 -26 -210 -34 -83 -8 -186
-24 -230 -35 -60 -16 -149 -24 -360 -36 -154 -8 -365 -22 -470 -30 -242 -19
-555 -19 -710 0 -66 8 -219 21 -340 30 -223 15 -273 22 -400 49 -38 8 -108 20
-155 26 -47 7 -99 21 -115 31 -17 10 -75 25 -129 34 -55 8 -113 24 -130 35
-17 10 -62 24 -99 30 -38 7 -88 23 -113 36 -24 13 -74 31 -111 39 -37 9 -80
24 -98 35 -17 10 -53 24 -80 30 -28 6 -63 20 -78 31 -16 11 -52 29 -80 38 -29
10 -70 30 -91 45 -21 14 -46 26 -55 26 -10 0 -37 12 -62 28 -24 15 -69 35
-100 45 -31 9 -63 24 -69 33 -7 8 -35 24 -61 35 -27 12 -54 28 -60 35 -6 8
-31 23 -55 34 -24 10 -44 23 -44 28 0 6 -21 20 -47 32 -27 12 -58 31 -69 42
-12 11 -35 27 -51 36 -82 46 -167 106 -238 167 -76 66 -127 105 -135 105 -5 0
-30 18 -57 40 -26 22 -63 52 -81 68 -19 15 -82 74 -141 132 -60 58 -148 143
-197 190 -49 47 -129 130 -179 184 -49 55 -108 119 -130 142 -22 23 -55 60
-72 81 -18 21 -46 54 -62 73 -48 56 -98 126 -115 158 -8 16 -22 32 -29 35 -8
3 -28 29 -46 59 -17 29 -47 73 -66 98 -20 25 -43 58 -53 74 -9 16 -27 39 -39
51 -12 12 -31 42 -42 67 -11 25 -24 49 -30 53 -6 3 -25 34 -42 68 -16 34 -45
89 -64 122 -18 33 -46 84 -60 114 -14 30 -35 66 -46 79 -10 14 -24 43 -30 66
-6 22 -19 52 -29 66 -9 14 -25 50 -35 80 -9 30 -27 71 -40 90 -12 19 -27 58
-34 87 -7 28 -23 66 -36 83 -13 17 -29 55 -36 83 -6 29 -22 72 -35 97 -13 25
-24 56 -24 70 0 37 -26 128 -44 156 -9 13 -24 59 -32 101 -9 43 -25 97 -36
121 -10 24 -24 80 -29 125 -6 45 -21 116 -34 157 -13 41 -29 116 -35 165 -6
50 -19 129 -30 176 -18 85 -30 175 -50 395 -6 61 -17 135 -24 165 -10 35 -18
168 -26 384 -14 403 0 903 30 1080 10 61 21 148 25 195 10 139 26 272 37 299
5 14 18 85 29 156 11 72 24 156 29 187 4 32 11 62 14 67 4 5 13 58 21 118 8
59 24 129 35 155 11 26 27 77 36 114 8 37 24 85 35 107 11 21 27 71 35 111 9
39 22 82 31 95 8 13 24 55 34 94 11 39 28 82 39 96 10 15 21 44 25 64 4 21 19
54 33 75 14 20 31 62 39 91 8 30 23 66 34 80 11 13 26 48 35 77 8 29 24 64 35
78 11 13 26 44 35 68 8 23 23 52 33 63 10 11 28 41 39 68 12 26 25 47 30 47 5
0 20 24 32 53 12 28 29 60 37 69 9 10 26 39 39 65 27 54 62 107 93 141 11 12
28 37 37 55 18 35 50 77 101 134 18 19 35 45 39 57 4 11 20 36 35 54 16 18 29
37 29 42 0 5 34 49 75 97 41 48 87 103 102 121 16 17 45 50 66 72 20 21 37 43
37 48 0 5 11 15 25 22 13 7 27 21 30 31 5 15 60 80 117 137 79 79 181 172 195
176 10 3 23 16 28 28 6 13 20 27 32 33 11 6 35 24 51 40 31 31 36 36 80 79 54
53 68 64 100 80 18 9 36 24 39 32 3 8 27 26 53 39 26 13 54 35 64 49 9 14 27
28 41 32 13 3 27 15 30 25 4 11 24 28 45 39 21 11 42 24 45 30 4 6 29 22 56
35 27 14 49 30 49 35 0 5 23 21 50 35 28 14 50 29 50 33 0 4 21 16 48 26 26
11 61 30 77 43 57 46 150 103 167 103 10 0 33 16 52 35 19 19 47 37 63 41 15
4 39 17 53 30 29 26 71 44 104 44 13 0 34 9 48 19 13 11 51 27 83 36 34 10 69
27 80 40 12 15 40 27 72 34 28 6 67 21 87 35 19 13 63 29 97 35 34 6 72 19 83
30 24 22 44 28 120 41 34 5 69 19 90 35 24 18 59 31 110 39 41 8 89 23 108 34
21 13 66 24 128 32 52 6 99 15 105 20 33 27 110 42 255 50 139 7 162 11 220
36 l65 29 765 2 c660 2 775 0 840 -14 41 -8 88 -22 104 -30 22 -12 84 -17 235
-23 162 -6 215 -11 246 -25 22 -9 42 -21 45 -26 3 -4 48 -13 100 -19 82 -10
98 -15 118 -37 21 -24 34 -27 120 -34 104 -8 146 -19 159 -43 5 -9 36 -19 78
-26 84 -13 135 -28 135 -40 0 -10 46 -24 133 -40 38 -8 60 -18 67 -30 7 -12
26 -21 58 -26 62 -9 89 -20 123 -48 15 -13 48 -27 75 -31 29 -4 56 -16 70 -30
16 -16 45 -28 86 -36 39 -7 70 -19 80 -31 10 -11 41 -26 69 -33 29 -8 64 -25
78 -38 14 -14 44 -30 66 -37 22 -7 49 -21 60 -31 11 -10 42 -27 67 -39 26 -11
52 -29 57 -39 6 -9 28 -23 51 -30 23 -7 50 -21 60 -31 10 -10 34 -26 52 -36
18 -9 42 -25 53 -35 11 -10 38 -26 60 -35 22 -9 50 -27 62 -40 12 -13 31 -24
42 -24 10 0 30 -13 43 -29 14 -16 42 -35 62 -42 21 -8 47 -26 58 -41 11 -16
26 -28 33 -28 8 0 29 -13 47 -29 18 -15 47 -35 63 -44 17 -8 41 -27 54 -41 14
-14 30 -26 37 -26 7 0 28 -13 46 -28 18 -15 51 -40 73 -55 80 -55 107 -76 126
-101 11 -14 25 -26 32 -26 6 0 25 -15 43 -32 44 -44 88 -81 149 -125 28 -19
55 -40 61 -45 14 -10 104 71 104 94 0 8 14 27 30 41 17 15 30 33 30 41 0 8 18
38 40 67 22 30 40 59 40 65 0 6 9 19 19 28 11 10 45 59 76 111 31 51 63 96 71
99 8 3 21 20 29 38 14 34 80 129 112 161 10 10 23 31 28 48 10 29 57 95 108
152 15 17 30 42 34 56 3 14 16 37 28 51 13 14 30 39 39 57 9 17 24 38 35 45
10 7 26 30 34 50 8 20 24 39 35 42 12 4 23 19 27 35 3 16 21 46 39 67 18 22
36 51 39 65 4 15 18 34 32 43 14 9 25 23 25 30 0 33 41 105 84 148 28 28 46
55 46 70 0 31 10 44 41 51 18 5 29 16 33 33 8 29 -1 64 -15 64 -5 0 -9 11 -9
25 0 31 28 34 53 5 27 -32 39 -24 36 25 -3 39 1 48 34 80 20 20 37 42 37 49 0
7 18 31 40 54 22 22 40 47 40 55 0 9 12 30 28 48 17 21 27 45 27 65 l0 33 -58
-5 c-40 -4 -57 -2 -52 5 3 7 -3 11 -15 11 -16 0 -26 11 -37 39 -9 24 -24 42
-37 45 -36 10 -49 7 -42 -10z m-12408 -179 c13 -47 4 -63 -32 -59 -36 4 -52
22 -59 66 l-6 37 43 -2 c40 -3 43 -5 54 -42z m12244 -10 c0 -19 -4 -36 -9 -39
-10 -6 -23 62 -15 76 11 17 24 -4 24 -37z m-12130 -101 c0 -9 -11 -14 -29 -14
-31 0 -50 15 -29 23 27 9 58 4 58 -9z m7097 -140 c-3 -3 -12 -4 -19 -1 -8 3
-5 6 6 6 11 1 17 -2 13 -5z m142 -65 c9 -1 -4 -5 -28 -10 -46 -9 -66 -4 -55
13 4 5 20 7 36 4 17 -3 38 -6 47 -7z"/>
<path d="M15846 25371 c-8 -12 3 -41 15 -41 5 0 9 11 9 25 0 25 -14 34 -24 16z"/>
<path d="M46933 8804 c-10 -14 -31 -39 -47 -56 -15 -17 -34 -45 -41 -62 -7
-17 -25 -42 -39 -55 -14 -14 -26 -30 -26 -38 0 -7 -12 -23 -26 -36 -14 -12
-33 -35 -41 -52 -9 -16 -26 -40 -39 -52 -32 -29 -34 -97 -4 -113 27 -14 286
-15 323 -1 15 6 27 15 27 20 0 6 16 17 35 26 19 10 37 25 40 35 3 9 24 25 46
36 23 10 48 29 57 42 8 12 27 29 41 37 14 7 48 34 75 59 46 42 49 47 38 71 -6
14 -18 25 -25 25 -7 0 -35 14 -60 31 -26 17 -73 38 -105 46 -31 8 -61 20 -67
27 -18 23 -53 36 -99 36 -37 0 -48 -5 -63 -26z"/>
<path d="M18765 8001 c-22 -4 -56 -17 -75 -29 -19 -11 -64 -26 -100 -32 -36
-6 -81 -22 -100 -35 -19 -14 -51 -30 -70 -36 -36 -13 -59 -28 -136 -91 -25
-21 -55 -43 -67 -50 -31 -16 -166 -154 -207 -211 -97 -135 -179 -308 -196
-417 -8 -49 -22 -105 -31 -127 -26 -58 -31 -289 -8 -368 9 -33 24 -103 32
-155 9 -61 24 -115 42 -150 15 -30 31 -67 34 -81 4 -14 20 -43 37 -64 16 -21
30 -44 30 -52 0 -7 13 -28 30 -46 16 -17 42 -51 57 -73 16 -23 42 -57 58 -75
45 -50 155 -139 171 -139 8 0 19 -11 26 -25 6 -15 25 -29 47 -36 20 -6 45 -20
57 -30 11 -11 43 -26 71 -34 28 -8 56 -22 63 -30 15 -18 65 -32 174 -50 45 -7
99 -20 121 -28 63 -25 332 -23 405 2 30 10 94 24 141 31 65 9 93 17 114 36 15
13 35 24 44 24 32 1 93 29 107 48 8 11 28 23 44 27 51 11 198 134 261 219 l30
40 -33 33 c-18 18 -46 49 -63 69 -16 20 -56 63 -88 96 -51 52 -62 59 -85 53
-31 -7 -121 -67 -153 -101 -12 -13 -29 -24 -37 -24 -7 0 -27 -14 -44 -30 -24
-24 -46 -33 -114 -47 -53 -10 -92 -24 -106 -37 -18 -17 -39 -22 -122 -26 -162
-8 -287 3 -322 28 -16 12 -51 26 -78 31 -26 5 -60 19 -75 30 -14 12 -39 29
-55 39 -16 9 -40 28 -55 41 -14 13 -36 27 -49 32 -12 5 -27 20 -32 33 -5 14
-18 30 -30 36 -11 6 -26 25 -34 43 -7 18 -25 46 -39 61 -15 16 -29 45 -33 65
-3 20 -17 56 -31 81 -52 94 -56 505 -6 576 11 16 29 58 38 92 10 35 24 66 32
69 8 3 21 20 30 37 8 17 26 42 39 56 86 91 131 130 149 130 7 0 23 12 34 26
13 16 42 32 79 43 33 10 72 28 88 40 25 18 51 23 160 31 184 13 351 -1 407
-33 23 -14 61 -30 83 -36 23 -6 58 -25 79 -41 21 -17 48 -33 60 -36 12 -3 32
-19 44 -35 12 -16 27 -29 34 -29 7 0 23 -13 35 -30 13 -16 30 -30 38 -30 15 0
147 131 208 205 35 44 57 104 46 126 -5 9 -26 29 -47 45 -20 15 -59 50 -86 76
-28 28 -64 52 -85 58 -21 5 -43 19 -50 30 -7 11 -18 20 -25 20 -7 0 -36 15
-66 34 -35 23 -75 38 -118 46 -38 6 -81 22 -106 38 l-40 27 -271 2 c-149 0
-289 -2 -311 -6z"/>
<path d="M25735 8001 c-23 -4 -57 -17 -76 -28 -19 -12 -55 -25 -79 -28 -65
-10 -108 -24 -113 -39 -3 -7 -32 -22 -65 -34 -33 -12 -66 -29 -73 -38 -7 -8
-28 -22 -47 -29 -18 -8 -36 -24 -39 -35 -3 -11 -16 -23 -29 -26 -13 -3 -35
-19 -48 -35 -14 -16 -29 -29 -34 -29 -14 0 -102 -97 -102 -113 0 -8 -12 -22
-26 -32 -14 -9 -30 -29 -36 -45 -5 -16 -20 -35 -32 -44 -14 -8 -28 -34 -36
-63 -8 -26 -24 -56 -36 -66 -14 -10 -25 -34 -29 -60 -4 -23 -20 -72 -36 -109
-26 -59 -31 -86 -38 -205 -4 -76 -5 -212 -1 -303 6 -158 8 -168 37 -230 18
-36 35 -87 39 -114 4 -31 16 -59 34 -80 15 -17 31 -45 34 -62 4 -18 16 -40 28
-50 11 -11 28 -35 38 -54 10 -19 29 -45 42 -57 12 -12 39 -40 58 -63 49 -58
57 -65 130 -122 36 -28 71 -59 78 -69 7 -10 29 -21 48 -25 20 -4 50 -19 68
-34 17 -15 54 -34 81 -43 28 -8 66 -24 85 -35 19 -11 82 -28 140 -37 58 -10
125 -24 150 -31 83 -25 367 -12 417 19 5 3 50 13 101 22 61 10 104 24 128 40
20 14 45 25 56 25 23 0 55 16 83 40 11 9 35 22 53 28 33 11 94 56 141 103 15
14 41 34 59 43 17 9 32 21 32 26 0 9 10 21 95 113 19 21 44 55 55 77 11 22 24
40 29 40 5 0 17 20 27 45 9 25 27 57 40 72 21 25 44 98 44 142 0 10 9 30 20
44 35 44 42 124 38 402 -4 257 -5 261 -30 310 -15 28 -32 76 -38 108 -7 33
-20 67 -31 78 -11 11 -27 38 -36 62 -9 23 -29 57 -45 75 -15 18 -28 39 -28 47
0 7 -11 22 -23 32 -13 10 -29 28 -35 39 -6 12 -33 42 -59 68 -26 25 -59 57
-73 70 -14 14 -37 30 -52 37 -15 7 -30 20 -33 30 -3 10 -15 21 -26 24 -11 4
-36 20 -55 37 -19 17 -53 34 -77 40 -23 5 -53 20 -67 33 -16 15 -49 29 -95 38
-39 8 -88 26 -110 38 -39 23 -46 24 -310 26 -148 0 -288 -2 -310 -6z m508
-401 c30 -16 63 -30 74 -30 11 0 35 -11 54 -25 19 -14 49 -32 66 -40 18 -8 40
-26 48 -39 9 -13 29 -29 45 -36 17 -7 30 -16 30 -20 0 -8 53 -76 94 -120 13
-14 28 -40 35 -59 6 -19 22 -48 35 -65 12 -17 26 -49 30 -71 4 -22 19 -78 33
-125 36 -116 39 -285 6 -375 -12 -33 -26 -89 -33 -125 -6 -36 -20 -77 -31 -93
-11 -15 -28 -47 -39 -71 -10 -25 -27 -49 -38 -55 -11 -6 -27 -29 -36 -51 -9
-22 -21 -40 -26 -40 -6 0 -25 -14 -43 -30 -52 -49 -120 -99 -157 -116 -19 -9
-44 -24 -55 -34 -35 -32 -128 -45 -320 -45 -219 1 -262 7 -311 46 -20 16 -44
29 -53 29 -9 0 -34 16 -55 35 -22 19 -49 38 -60 41 -28 9 -106 91 -128 134
-10 19 -25 38 -34 43 -8 5 -24 29 -35 55 -11 25 -26 50 -33 56 -16 13 -36 70
-36 103 0 14 -12 59 -27 101 -25 70 -28 90 -27 207 0 98 5 137 17 161 8 16 25
68 36 114 12 45 35 105 51 132 17 26 30 53 30 58 0 5 14 22 30 37 17 14 30 31
30 37 0 6 24 36 54 66 86 88 110 110 122 110 6 0 28 14 49 30 21 17 55 33 76
36 20 4 59 19 86 35 48 28 49 28 221 28 l172 1 53 -30z"/>
<path d="M29643 8001 c-17 -5 -43 -18 -58 -30 -15 -11 -36 -21 -46 -21 -44 0
-117 -23 -142 -44 -15 -13 -47 -29 -71 -35 -25 -6 -57 -21 -73 -33 -15 -13
-37 -28 -48 -34 -11 -6 -24 -20 -30 -32 -5 -12 -18 -25 -29 -28 -10 -4 -35
-21 -54 -39 -57 -53 -59 -55 -168 -177 -18 -19 -35 -45 -39 -57 -3 -11 -11
-21 -16 -21 -6 0 -23 -28 -39 -63 -16 -35 -35 -69 -44 -76 -8 -7 -23 -47 -32
-89 -9 -42 -26 -89 -37 -104 -25 -34 -35 -139 -36 -368 0 -197 12 -305 38
-341 11 -15 25 -55 31 -90 7 -39 23 -82 41 -108 16 -25 29 -50 29 -57 0 -7 13
-28 29 -46 15 -18 36 -49 46 -68 10 -19 28 -42 41 -52 12 -10 26 -27 29 -38 4
-11 20 -27 36 -35 16 -9 29 -22 29 -30 0 -9 12 -23 28 -33 15 -9 38 -27 52
-40 64 -59 122 -101 148 -107 16 -3 39 -17 51 -29 13 -13 43 -29 69 -36 26 -7
57 -22 69 -33 22 -19 132 -45 198 -46 17 -1 47 -10 68 -21 33 -18 56 -20 215
-20 149 0 188 3 238 19 32 11 100 25 149 31 60 8 103 19 130 35 22 12 60 28
85 35 24 7 58 23 74 37 16 13 42 27 58 30 16 3 37 16 46 28 10 12 31 29 47 38
39 20 135 115 146 145 5 13 9 189 9 391 l0 368 -22 21 c-25 22 -46 24 -271 23
-112 -1 -119 -2 -143 -26 l-26 -26 3 -277 c2 -276 2 -277 -21 -317 -30 -50
-33 -52 -92 -60 -26 -4 -65 -18 -85 -32 -51 -35 -158 -46 -384 -41 l-176 4
-49 31 c-27 17 -61 33 -76 37 -15 3 -35 15 -45 25 -10 11 -37 30 -60 43 -23
13 -52 36 -63 51 -12 15 -28 27 -35 27 -8 0 -17 10 -20 23 -4 12 -20 39 -36
59 -16 21 -38 57 -48 80 -10 24 -25 49 -34 56 -9 8 -21 39 -27 70 -6 31 -20
91 -31 132 -27 104 -27 325 0 373 10 17 24 64 30 104 8 45 19 77 31 88 11 10
27 38 36 64 10 25 30 59 45 74 16 16 31 37 34 47 3 10 14 20 25 23 11 3 28 19
37 36 10 17 23 31 29 31 5 0 23 13 39 30 16 16 49 37 74 46 25 10 55 25 66 34
26 23 75 37 152 44 34 3 95 12 136 21 66 14 78 14 110 0 20 -8 58 -15 84 -15
87 0 174 -19 205 -45 16 -14 48 -29 71 -36 23 -6 57 -25 75 -42 25 -25 44 -32
89 -37 51 -6 60 -4 80 16 13 13 23 30 23 38 0 8 15 31 34 51 19 19 37 47 41
62 3 14 19 38 36 54 16 15 29 34 29 43 0 17 -81 101 -139 144 -16 12 -55 31
-85 42 -31 10 -65 28 -77 39 -19 18 -95 41 -135 41 -8 0 -38 12 -67 28 l-52
27 -275 2 c-151 1 -289 -2 -307 -6z"/>
<path d="M46447 7999 c-22 -5 -50 -18 -63 -28 -13 -11 -48 -22 -77 -26 -64 -9
-85 -17 -116 -44 -13 -12 -41 -26 -61 -31 -21 -6 -54 -24 -75 -40 -21 -17 -44
-30 -51 -30 -7 0 -33 -18 -56 -40 -74 -69 -82 -77 -105 -88 -12 -7 -25 -21
-28 -32 -4 -11 -29 -44 -57 -73 -28 -28 -62 -70 -75 -91 -14 -22 -34 -49 -44
-60 -11 -11 -24 -38 -30 -61 -6 -22 -22 -56 -35 -76 -14 -21 -29 -62 -35 -98
-5 -34 -18 -78 -29 -99 -30 -58 -41 -173 -36 -368 4 -164 7 -181 30 -225 13
-27 28 -70 31 -96 11 -81 25 -122 43 -132 10 -5 24 -32 31 -59 7 -28 21 -58
33 -68 11 -10 26 -34 34 -52 7 -19 45 -69 84 -113 38 -44 70 -83 70 -87 0 -4
15 -16 33 -26 17 -11 49 -34 70 -53 20 -18 44 -33 52 -33 8 0 19 -9 25 -20 6
-12 34 -32 63 -46 29 -13 68 -33 87 -44 117 -63 160 -78 265 -94 61 -10 127
-24 148 -32 54 -20 288 -19 342 2 38 15 88 25 197 39 26 3 62 16 80 29 19 12
56 28 83 35 28 7 61 23 75 36 14 12 40 26 59 30 18 4 49 22 69 41 20 19 41 34
46 34 10 0 23 12 129 117 89 90 103 106 121 141 9 17 21 32 26 32 11 0 50 72
50 93 0 7 11 23 24 36 12 12 28 41 35 64 7 23 23 65 36 92 18 37 29 87 41 190
15 126 20 378 8 397 -3 5 -10 50 -15 101 -6 61 -17 109 -33 142 -14 28 -29 69
-35 92 -7 23 -22 55 -35 70 -13 15 -29 45 -35 66 -7 21 -22 43 -33 50 -11 7
-25 26 -32 42 -23 55 -167 203 -227 235 -20 11 -39 26 -42 35 -4 8 -19 21 -34
27 -15 7 -42 24 -60 39 -17 15 -50 30 -72 34 -23 4 -47 15 -54 25 -16 22 -58
40 -94 40 -15 0 -56 15 -92 33 l-66 32 -275 2 c-151 1 -292 -2 -313 -8z m437
-373 c24 -2 57 -12 73 -23 15 -11 53 -26 83 -33 31 -7 69 -25 87 -41 17 -15
41 -30 52 -34 12 -3 21 -10 21 -15 0 -4 23 -25 51 -45 28 -20 58 -50 67 -67 9
-17 34 -48 55 -69 20 -20 37 -44 37 -52 0 -8 11 -26 24 -40 13 -14 29 -50 35
-79 7 -29 24 -78 38 -108 26 -54 27 -60 27 -250 0 -190 -1 -196 -26 -251 -15
-30 -32 -77 -39 -105 -7 -27 -25 -64 -40 -82 -16 -18 -32 -45 -35 -59 -4 -15
-21 -42 -38 -59 -17 -18 -53 -55 -79 -83 -26 -28 -54 -51 -62 -51 -8 0 -21
-10 -29 -21 -8 -12 -40 -32 -71 -44 -31 -13 -62 -30 -68 -38 -45 -58 -542 -61
-605 -4 -10 9 -35 24 -58 34 -68 31 -107 65 -298 264 -13 14 -29 43 -35 65 -6
22 -21 54 -35 72 -19 26 -26 54 -35 135 -7 56 -16 136 -22 178 -6 52 -6 85 1
103 5 15 10 47 10 71 0 88 22 196 45 224 13 14 28 45 34 67 6 22 24 55 41 74
16 18 30 40 30 47 0 8 11 25 24 38 13 13 33 37 45 54 12 17 28 31 36 31 7 0
23 12 35 27 11 14 39 35 62 45 23 10 52 29 65 42 15 15 40 26 71 30 29 4 58
15 72 29 21 19 39 23 125 27 96 5 133 4 229 -4z"/>
<path d="M11745 7969 c-27 -4 -150 -8 -273 -7 -219 0 -224 0 -248 -23 -13 -12
-24 -28 -24 -34 0 -7 -9 -20 -20 -30 -11 -10 -28 -44 -37 -74 -8 -31 -26 -69
-39 -84 -13 -15 -29 -47 -35 -70 -6 -23 -20 -52 -30 -66 -10 -13 -26 -46 -34
-74 -8 -27 -25 -59 -39 -72 -14 -13 -27 -39 -31 -66 -4 -24 -20 -64 -36 -88
-16 -25 -29 -51 -29 -59 0 -8 -15 -43 -34 -76 -18 -34 -39 -79 -46 -101 -7
-22 -18 -47 -25 -55 -7 -8 -16 -26 -20 -40 -7 -24 -44 -107 -105 -235 -16 -33
-32 -77 -35 -97 -9 -50 -23 -65 -67 -72 -32 -6 -39 -3 -52 16 -8 13 -17 39
-21 58 -4 19 -17 51 -30 70 -13 19 -29 55 -35 79 -6 24 -22 60 -34 80 -13 20
-31 60 -40 88 -10 29 -21 55 -26 58 -5 3 -16 29 -26 58 -9 28 -27 72 -39 97
-73 144 -94 190 -100 224 -4 21 -18 50 -31 66 -14 16 -31 49 -39 75 -7 26 -21
55 -29 64 -9 10 -25 44 -36 76 -11 33 -28 68 -38 80 -10 11 -24 40 -31 65 -13
43 -28 68 -81 130 l-25 30 -284 4 c-299 5 -312 4 -363 -42 -17 -14 -18 -82
-18 -1158 0 -628 3 -1150 6 -1159 4 -9 24 -25 46 -36 36 -18 55 -20 203 -17
148 3 166 5 192 24 l28 21 -3 449 c-4 594 9 1146 27 1168 18 22 28 13 36 -33
4 -22 18 -52 31 -66 14 -15 34 -51 45 -80 11 -29 26 -58 34 -65 8 -6 21 -35
29 -64 9 -29 25 -65 36 -79 11 -14 27 -45 36 -69 8 -23 23 -52 33 -63 10 -11
26 -43 35 -72 10 -28 23 -57 31 -63 8 -6 22 -33 31 -58 10 -26 28 -58 40 -72
13 -14 33 -54 45 -89 11 -35 26 -73 34 -85 7 -12 18 -39 25 -61 7 -22 21 -49
31 -61 11 -11 26 -43 34 -70 8 -28 24 -59 35 -69 10 -9 26 -41 35 -70 8 -29
22 -58 31 -66 8 -7 24 -29 34 -50 11 -20 26 -39 35 -43 29 -11 213 -7 239 5
14 7 30 26 36 44 6 18 20 41 31 51 11 9 26 41 35 70 8 29 21 58 29 64 8 7 23
36 34 64 11 29 31 70 45 91 14 21 26 42 26 48 0 6 18 47 39 91 22 45 54 113
71 151 18 39 37 79 43 90 37 67 108 214 118 242 6 19 21 46 34 61 13 15 28 46
34 68 6 23 20 49 31 59 10 9 27 40 36 67 9 27 29 63 45 79 16 16 29 38 29 48
0 26 21 81 31 81 32 0 33 -41 30 -832 -1 -575 1 -793 9 -808 20 -38 66 -48
225 -51 157 -3 184 2 205 41 7 13 10 387 10 1160 0 1239 3 1176 -54 1214 -14
9 -27 15 -28 15 -2 -1 -25 -5 -53 -10z"/>
<path d="M13480 7960 c-58 -3 -110 -8 -116 -12 -6 -4 -17 -22 -25 -40 -7 -18
-23 -48 -36 -67 -12 -18 -25 -49 -29 -70 -3 -20 -17 -52 -30 -71 -13 -20 -31
-59 -39 -88 -9 -29 -26 -68 -39 -87 -13 -19 -27 -51 -31 -72 -3 -21 -18 -54
-31 -74 -14 -20 -31 -60 -39 -87 -7 -28 -22 -64 -33 -79 -11 -16 -27 -55 -35
-87 -9 -32 -25 -68 -36 -80 -11 -12 -25 -45 -32 -74 -6 -29 -22 -66 -35 -81
-13 -16 -28 -50 -33 -76 -5 -25 -18 -57 -30 -69 -12 -13 -28 -47 -36 -76 -8
-29 -25 -69 -38 -89 -14 -20 -30 -60 -36 -90 -7 -32 -21 -64 -35 -78 -13 -13
-27 -40 -31 -61 -4 -20 -19 -59 -35 -87 -16 -27 -32 -67 -35 -88 -4 -21 -18
-53 -30 -71 -13 -19 -31 -60 -40 -92 -9 -33 -23 -63 -31 -67 -7 -4 -23 -38
-34 -74 -11 -37 -27 -74 -34 -83 -7 -8 -25 -53 -40 -99 -42 -132 -30 -140 200
-142 201 -1 232 9 255 80 7 20 21 47 31 62 10 14 26 51 34 82 8 32 23 66 33
76 10 10 24 43 31 72 7 30 20 63 30 74 10 11 27 39 39 63 12 24 29 42 39 43
123 3 1074 -1 1081 -5 5 -4 12 -20 16 -36 4 -16 18 -46 32 -67 14 -21 32 -60
39 -88 7 -27 22 -61 33 -76 11 -15 30 -56 41 -92 12 -36 28 -71 35 -77 8 -6
19 -27 25 -46 18 -52 38 -58 200 -61 80 -1 158 -5 173 -8 33 -6 75 18 87 50
11 29 -19 142 -49 181 -12 17 -27 51 -32 75 -6 24 -21 60 -34 79 -13 19 -31
61 -40 92 -9 32 -23 61 -31 66 -8 5 -22 35 -30 68 -9 32 -26 75 -39 94 -13 19
-29 57 -35 84 -6 27 -22 62 -35 78 -14 16 -25 37 -25 45 0 30 -23 93 -41 112
-10 10 -25 45 -35 77 -9 32 -27 74 -40 94 -13 19 -27 55 -33 78 -5 24 -19 54
-30 66 -12 12 -28 49 -37 82 -8 32 -23 68 -33 79 -10 11 -26 49 -36 85 -9 36
-26 77 -37 92 -10 15 -26 51 -34 80 -9 29 -25 63 -36 75 -11 12 -24 43 -29 69
-5 27 -20 60 -32 74 -13 14 -29 49 -35 78 -7 30 -21 65 -32 79 -11 14 -29 56
-40 94 -11 37 -25 71 -31 75 -6 3 -19 26 -29 49 -10 24 -27 48 -37 53 -23 12
-204 19 -343 12z m151 -642 c16 -35 36 -74 43 -88 19 -33 54 -121 79 -195 11
-33 28 -71 38 -85 9 -14 25 -52 34 -85 10 -33 28 -76 41 -95 13 -19 24 -42 24
-50 0 -9 15 -47 34 -86 66 -134 60 -148 -67 -148 -348 -2 -606 6 -617 19 -16
19 -3 77 26 116 13 18 27 49 30 68 3 20 19 62 35 94 16 31 34 78 41 105 6 26
20 58 30 72 18 25 34 65 88 213 15 43 37 88 47 100 11 12 28 41 38 65 10 23
20 42 22 42 2 0 17 -28 34 -62z"/>
<path d="M15336 7947 c-17 -10 -36 -26 -43 -34 -9 -12 -12 -286 -13 -1157 0
-1269 -6 -1175 68 -1196 57 -15 316 -13 356 4 67 28 66 23 66 405 -1 290 2
347 14 359 12 12 53 15 221 15 l207 -1 44 -43 c24 -24 44 -49 44 -57 0 -7 13
-26 28 -42 16 -16 35 -42 41 -59 7 -16 22 -38 33 -48 11 -10 29 -35 40 -56 10
-21 26 -41 34 -44 9 -3 24 -25 35 -49 10 -24 22 -44 27 -44 5 0 21 -22 35 -48
14 -26 35 -56 47 -67 11 -10 20 -24 20 -32 0 -7 14 -28 30 -46 17 -17 41 -50
53 -71 39 -70 69 -80 255 -87 194 -8 279 0 298 26 21 29 17 71 -9 92 -12 10
-29 32 -36 50 -7 17 -22 40 -33 50 -11 10 -29 35 -39 55 -11 21 -30 45 -44 54
-14 9 -25 25 -25 35 0 10 -13 33 -28 51 -16 18 -39 50 -51 71 -12 20 -27 37
-32 37 -5 0 -18 20 -30 45 -12 25 -25 45 -29 45 -4 0 -23 25 -41 55 -18 30
-37 55 -41 55 -4 0 -15 15 -24 33 -8 17 -27 41 -40 53 -22 18 -23 23 -13 53 9
27 23 38 67 58 31 13 61 30 66 37 6 7 27 19 46 27 38 14 122 94 155 145 11 18
28 43 39 58 10 14 22 45 28 68 5 24 20 59 34 79 24 35 25 44 31 235 6 224 -5
342 -37 386 -11 15 -20 33 -20 40 -1 20 -36 94 -57 117 -60 69 -126 132 -155
147 -18 9 -44 26 -59 36 -14 10 -53 25 -86 33 -34 8 -78 23 -100 34 -35 18
-199 41 -243 33 -8 -1 -58 3 -110 10 -59 7 -263 12 -544 12 -419 1 -451 0
-480 -17z m1167 -387 c20 -6 37 -15 37 -20 0 -4 21 -16 48 -26 63 -23 117 -83
137 -154 9 -30 23 -69 31 -87 24 -53 18 -140 -20 -253 -19 -57 -41 -107 -50
-112 -9 -5 -23 -22 -31 -38 -9 -17 -28 -33 -49 -40 -19 -6 -37 -17 -40 -25 -7
-20 -66 -33 -186 -41 -58 -4 -121 -13 -140 -21 -39 -17 -341 -31 -404 -19 -72
14 -71 11 -69 443 1 305 4 387 15 400 12 15 46 15 348 10 184 -4 352 -12 373
-17z"/>
<path d="M20587 7942 l-22 -24 -3 -1146 c-2 -1190 -2 -1190 38 -1212 10 -6
353 -10 840 -10 l823 -1 23 23 c28 27 28 26 26 196 -2 117 -4 134 -22 152 -20
20 -33 20 -638 20 -467 0 -621 3 -630 12 -9 9 -12 87 -12 289 0 153 3 284 6
293 5 13 71 15 527 16 583 1 557 -3 578 72 14 51 13 236 -2 275 -25 67 13 63
-565 63 -510 0 -524 1 -534 20 -7 12 -9 117 -8 297 l3 278 600 5 c631 5 636 6
650 50 4 12 6 81 6 155 0 139 -6 164 -46 184 -13 7 -293 11 -818 13 l-798 3
-22 -23z"/>
<path d="M22981 7959 c-72 -15 -65 87 -71 -1190 -4 -921 -2 -1155 8 -1174 7
-14 25 -28 40 -32 15 -5 345 -8 734 -8 l707 0 23 22 c21 21 22 33 26 171 3
136 2 150 -16 173 l-20 24 -510 5 c-281 3 -514 9 -519 13 -4 5 -9 446 -10 980
l-3 972 -25 23 c-28 23 -36 24 -240 27 -49 1 -105 -2 -124 -6z"/>
<path d="M31519 7942 l-34 -30 1 -674 c2 -802 13 -1014 59 -1068 7 -8 20 -39
29 -68 8 -29 27 -67 41 -83 14 -17 25 -37 25 -44 0 -13 52 -83 85 -115 15 -15
26 -26 74 -75 46 -47 65 -62 97 -78 17 -9 36 -23 43 -31 8 -9 36 -23 63 -31
27 -8 63 -26 79 -40 17 -14 40 -25 52 -25 35 0 164 -29 207 -46 55 -22 321
-17 365 8 17 9 67 21 110 27 55 8 91 19 115 36 20 14 59 32 87 40 28 8 56 22
64 31 7 8 26 22 43 31 17 9 45 30 62 47 18 17 52 50 78 73 25 23 51 53 58 67
6 14 21 33 34 41 13 8 29 34 35 57 7 24 21 53 31 64 20 23 48 103 48 138 0 12
12 44 28 71 l27 50 3 801 c3 763 2 802 -16 824 -17 21 -24 22 -197 24 -171 2
-180 1 -204 -20 l-26 -22 0 -664 c0 -650 0 -665 -22 -753 -12 -49 -30 -125
-39 -168 -9 -46 -25 -89 -38 -105 -12 -15 -29 -43 -36 -62 -17 -41 -93 -126
-132 -146 -15 -8 -42 -27 -60 -43 -30 -26 -44 -30 -138 -38 -99 -9 -264 -3
-312 13 -12 3 -39 19 -61 35 -22 16 -48 29 -58 29 -10 0 -25 13 -34 29 -8 16
-23 32 -33 35 -11 4 -24 23 -30 45 -7 21 -23 50 -37 64 -15 14 -32 50 -41 83
-8 32 -24 73 -36 92 -30 49 -34 167 -33 907 1 350 -3 622 -8 638 -5 15 -17 32
-27 37 -10 5 -94 13 -187 16 l-169 7 -35 -31z"/>
<path d="M34259 7948 c-21 -9 -42 -25 -48 -36 -7 -14 -11 -373 -11 -1161 0
-1119 0 -1141 19 -1160 30 -30 83 -39 233 -40 149 -2 192 8 222 50 15 22 16
120 16 1158 l-1 1134 -33 33 c-19 19 -40 34 -47 35 -8 0 -81 1 -164 2 -120 2
-156 -1 -186 -15z"/>
<path d="M35438 7938 c-28 -27 -29 -32 -33 -148 -2 -56 -2 -1019 -1 -1760 1
-444 2 -451 52 -470 33 -13 1381 -14 1415 -2 48 19 55 44 54 199 0 135 -1 144
-23 165 l-23 23 -502 5 -502 5 -5 975 c-4 754 -8 980 -17 997 -19 32 -43 36
-223 37 l-165 1 -27 -27z"/>
<path d="M37501 7957 c-66 -17 -62 63 -62 -1194 0 -627 3 -1147 6 -1156 4 -9
19 -24 33 -34 25 -17 71 -18 735 -21 l707 -3 25 25 c24 25 25 28 25 181 0 142
-2 157 -20 175 -19 19 -33 20 -509 20 -269 0 -496 3 -505 6 -14 6 -16 101 -16
976 l0 969 -24 24 c-13 13 -39 26 -57 29 -59 9 -306 12 -338 3z"/>
<path d="M40413 7963 l-143 -4 -39 -37 c-28 -27 -43 -53 -56 -97 -9 -33 -25
-69 -35 -80 -10 -11 -26 -46 -35 -79 -9 -32 -27 -73 -40 -91 -12 -19 -25 -52
-29 -74 -3 -22 -17 -53 -31 -69 -13 -16 -29 -51 -35 -78 -6 -27 -22 -65 -34
-84 -13 -19 -29 -58 -36 -87 -6 -28 -22 -66 -35 -83 -13 -17 -29 -53 -35 -80
-6 -27 -20 -56 -31 -66 -11 -10 -27 -43 -35 -73 -9 -31 -27 -74 -39 -96 -13
-22 -28 -64 -35 -93 -7 -30 -19 -56 -26 -59 -8 -3 -22 -33 -33 -67 -11 -35
-30 -78 -43 -98 -13 -19 -30 -60 -37 -90 -6 -31 -21 -64 -31 -73 -10 -9 -24
-43 -31 -74 -7 -31 -22 -67 -35 -81 -12 -14 -28 -47 -35 -75 -7 -27 -22 -62
-35 -77 -12 -15 -25 -47 -29 -70 -8 -48 -19 -74 -45 -103 -10 -11 -23 -45 -30
-75 -7 -30 -23 -68 -36 -83 -27 -32 -29 -45 -12 -82 12 -26 32 -35 78 -34 14
0 82 0 152 0 138 -1 213 9 234 30 7 8 19 37 25 64 7 28 21 59 30 70 10 11 25
47 34 80 10 33 26 70 37 81 10 12 25 44 32 71 16 60 21 69 63 117 l33 37 509
-1 c490 0 510 -1 555 -20 34 -16 47 -28 52 -48 13 -58 17 -68 39 -92 13 -14
28 -50 34 -81 7 -31 20 -64 31 -74 10 -9 26 -47 35 -83 16 -67 39 -102 85
-135 21 -15 50 -17 207 -17 170 0 184 1 203 20 11 11 20 33 20 50 0 34 -23 96
-44 120 -8 8 -19 35 -26 60 -6 25 -22 61 -35 80 -13 19 -27 52 -30 72 -4 20
-22 60 -40 88 -18 28 -36 71 -40 96 -3 25 -16 55 -27 66 -11 11 -27 46 -35 77
-8 31 -25 72 -38 91 -13 19 -29 57 -35 85 -6 27 -19 59 -29 70 -28 30 -41 60
-41 93 0 17 -12 44 -29 65 -15 20 -31 55 -35 79 -4 23 -18 57 -31 74 -14 18
-32 58 -40 90 -8 32 -23 67 -34 78 -11 12 -24 41 -31 66 -16 66 -30 98 -45
104 -7 2 -18 29 -24 58 -7 29 -22 64 -35 78 -14 15 -28 49 -35 85 -6 32 -22
75 -35 95 -14 19 -29 53 -35 75 -6 22 -22 56 -36 75 -14 19 -25 39 -25 44 0
30 -24 89 -44 111 -14 14 -27 45 -30 69 -9 61 -36 82 -123 95 -39 6 -73 10
-75 9 -2 -1 -67 -4 -145 -5z m106 -668 c7 -31 22 -66 33 -77 11 -11 28 -49 38
-84 10 -36 27 -75 38 -87 12 -12 26 -44 32 -70 6 -27 22 -65 35 -85 14 -20 25
-46 25 -57 0 -12 15 -52 34 -91 19 -38 39 -86 45 -108 5 -21 23 -57 38 -78 45
-66 43 -66 -340 -67 -210 0 -344 3 -364 10 -32 10 -32 11 -18 39 8 15 17 47
21 70 4 23 17 54 30 69 12 15 30 53 39 86 10 33 26 71 37 85 10 14 25 48 32
75 7 28 24 67 38 87 14 21 29 57 32 82 4 26 17 55 31 71 14 14 28 45 32 67 4
29 18 54 46 84 22 24 43 41 47 39 4 -2 12 -29 19 -60z"/>
<path d="M42265 7963 c-54 -9 -66 -15 -80 -43 -13 -25 -15 -169 -15 -1169 l0
-1140 23 -26 c30 -36 67 -41 245 -35 l154 5 24 30 24 30 -3 776 c-2 825 -3
809 44 809 14 0 23 -16 39 -68 11 -38 29 -77 39 -86 11 -10 23 -31 26 -47 4
-15 18 -45 31 -65 14 -20 34 -61 45 -90 11 -29 28 -63 38 -76 10 -13 24 -41
31 -63 7 -22 21 -50 32 -61 11 -12 26 -43 33 -69 8 -25 25 -60 39 -76 13 -15
28 -43 31 -61 4 -18 18 -46 31 -61 13 -15 28 -45 34 -65 5 -21 21 -53 35 -72
14 -19 31 -54 37 -78 6 -23 23 -58 38 -77 15 -19 30 -53 34 -76 4 -25 19 -56
36 -76 17 -19 30 -44 30 -57 0 -32 40 -88 74 -105 36 -17 219 -16 255 2 17 8
32 29 44 62 10 28 27 59 37 70 10 11 25 47 33 81 7 33 23 70 35 82 11 11 26
40 32 64 7 24 21 53 32 64 10 12 26 43 33 69 8 25 26 60 39 76 14 17 31 49 37
72 6 23 19 47 30 55 10 7 26 38 35 69 9 31 25 64 34 72 10 9 25 39 35 68 9 28
22 57 30 63 8 7 24 37 35 68 12 32 30 66 40 77 10 11 25 44 34 73 8 29 24 61
35 70 10 9 25 37 33 62 9 25 27 63 42 84 14 21 26 42 26 47 0 4 5 20 12 36
l11 28 7 -30 c4 -16 8 -398 9 -848 l1 -819 23 -20 c22 -19 34 -21 197 -19 95
1 181 6 191 12 10 5 22 24 27 41 5 20 8 505 8 1175 l-1 1141 -24 25 -23 26
-277 -5 c-325 -6 -352 -11 -382 -78 -10 -22 -19 -49 -19 -58 0 -9 -6 -23 -13
-30 -25 -24 -45 -63 -51 -98 -4 -19 -18 -52 -32 -73 -14 -22 -32 -57 -40 -79
-7 -22 -25 -53 -38 -69 -14 -16 -28 -49 -32 -75 -4 -26 -16 -56 -29 -70 -12
-13 -28 -46 -35 -72 -7 -26 -23 -58 -36 -72 -13 -14 -28 -48 -34 -77 -6 -28
-20 -59 -31 -69 -11 -10 -27 -43 -36 -73 -8 -31 -26 -66 -39 -78 -14 -12 -26
-39 -30 -63 -4 -23 -17 -54 -29 -68 -12 -15 -29 -48 -37 -73 -9 -25 -33 -70
-54 -99 l-38 -53 -19 44 c-11 24 -27 53 -37 64 -10 11 -25 46 -34 79 -8 32
-24 68 -35 80 -12 12 -27 42 -34 67 -8 24 -25 61 -39 81 -14 20 -28 55 -32 78
-3 22 -16 50 -28 62 -11 11 -27 41 -35 67 -7 25 -24 61 -37 81 -13 19 -27 52
-31 74 -4 23 -18 49 -34 65 -19 18 -32 44 -40 83 -7 32 -20 64 -30 70 -9 7
-23 35 -31 62 -7 26 -23 60 -36 75 -12 15 -30 52 -39 83 -9 31 -25 67 -35 81
-10 13 -22 35 -25 49 -9 37 -43 64 -90 73 -40 7 -502 14 -540 8z"/>
<path d="M48735 7959 c-103 -7 -118 -11 -139 -44 -14 -22 -16 -148 -16 -1163
l0 -1139 23 -21 c12 -11 35 -25 50 -31 42 -16 310 -14 350 2 64 27 60 -25 61
811 1 627 4 766 15 779 17 21 28 14 45 -28 8 -18 24 -36 35 -40 12 -3 24 -17
27 -31 3 -13 16 -32 29 -42 12 -10 25 -27 29 -37 3 -11 24 -40 46 -65 22 -25
40 -50 40 -57 0 -6 11 -20 24 -30 13 -10 31 -33 40 -50 8 -17 24 -34 35 -38
10 -3 22 -16 25 -29 5 -22 19 -41 109 -151 18 -22 39 -52 46 -67 8 -16 18 -28
23 -28 4 0 19 -17 33 -37 14 -21 46 -65 70 -98 25 -33 56 -77 70 -97 13 -20
31 -40 38 -45 8 -4 22 -22 31 -40 9 -17 24 -38 33 -45 10 -7 31 -31 46 -53 70
-101 90 -126 108 -135 10 -6 19 -19 19 -29 0 -9 16 -35 35 -57 19 -21 35 -42
35 -46 0 -6 41 -58 106 -133 14 -16 33 -40 42 -53 25 -34 76 -42 276 -43 176
-1 179 -1 202 23 l24 24 0 1159 c0 1115 -1 1161 -19 1185 l-18 25 -182 0
c-178 0 -183 -1 -204 -23 l-22 -24 -2 -814 c0 -448 -4 -822 -8 -832 -5 -14
-10 -11 -28 18 -12 19 -34 47 -49 62 -16 15 -28 34 -28 43 0 8 -11 20 -25 27
-14 6 -29 25 -35 44 -7 19 -18 38 -26 42 -13 7 -35 36 -109 145 -14 21 -33 41
-41 44 -8 3 -21 21 -29 40 -8 19 -24 37 -34 40 -11 3 -25 19 -31 37 -6 18 -24
45 -40 61 -15 15 -34 40 -40 56 -7 15 -23 35 -36 44 -13 8 -24 22 -24 30 0 7
-12 23 -27 35 -14 11 -35 39 -44 60 -10 22 -25 43 -34 46 -9 4 -24 23 -34 43
-11 20 -31 47 -45 60 -14 14 -26 30 -26 37 0 8 -13 23 -30 36 -16 12 -30 27
-30 34 0 7 -18 34 -40 59 -22 25 -40 51 -40 56 0 5 -15 25 -32 45 -18 19 -46
49 -61 66 -15 16 -34 46 -42 64 -8 19 -21 37 -30 40 -9 4 -22 19 -30 34 -13
25 -53 78 -109 145 -67 80 -72 83 -127 89 -96 10 -162 11 -254 5z"/>
</g>
</svg>
